<svg width="22" height="22" viewBox="0 0 22 22" fill="none" xmlns="http://www.w3.org/2000/svg">
<path d="M17.328 21.4994C16.413 21.4994 15.1277 21.1685 13.203 20.0932C10.8625 18.7807 9.05224 17.569 6.72443 15.2472C4.48005 13.0043 3.38787 11.5521 1.85927 8.77053C0.132398 5.62991 0.426773 3.98366 0.755836 3.28007C1.14771 2.43913 1.72615 1.93616 2.4738 1.43694C2.89847 1.15871 3.34787 0.920201 3.8163 0.724443C3.86318 0.704287 3.90677 0.685068 3.94568 0.667724C4.17771 0.563193 4.52927 0.405224 4.97458 0.573974C5.27177 0.685537 5.53708 0.913818 5.9524 1.32397C6.80411 2.16397 7.96802 4.03475 8.39739 4.9535C8.68567 5.57272 8.87646 5.98147 8.87692 6.43991C8.87692 6.97663 8.60693 7.39053 8.27927 7.83725C8.21786 7.92116 8.15692 8.00131 8.09786 8.07913C7.74114 8.54788 7.66286 8.68335 7.71443 8.92522C7.81896 9.41131 8.59849 10.8583 9.87958 12.1366C11.1607 13.4149 12.566 14.1452 13.054 14.2493C13.3061 14.3032 13.4444 14.2216 13.9282 13.8522C13.9975 13.7993 14.0688 13.7444 14.1433 13.6896C14.643 13.3179 15.0377 13.0549 15.5618 13.0549H15.5646C16.0207 13.0549 16.4111 13.2527 17.058 13.579C17.9018 14.0046 19.8288 15.1535 20.674 16.0062C21.085 16.4205 21.3143 16.6849 21.4263 16.9816C21.595 17.4283 21.4361 17.7785 21.3325 18.0129C21.3152 18.0518 21.296 18.0944 21.2758 18.1418C21.0785 18.6094 20.8386 19.0578 20.5591 19.4815C20.0608 20.2268 19.556 20.8038 18.7132 21.1962C18.2804 21.4009 17.8067 21.5046 17.328 21.4994Z" fill="#A0AEC0"/>
</svg>
