<svg width="22" height="18" viewBox="0 0 22 18" fill="none" xmlns="http://www.w3.org/2000/svg">
<path d="M18.8749 0.748962H3.12491C2.42895 0.749707 1.7617 1.02651 1.26958 1.51863C0.777461 2.01075 0.500661 2.678 0.499916 3.37396V14.624C0.500661 15.3199 0.777461 15.9872 1.26958 16.4793C1.7617 16.9714 2.42895 17.2482 3.12491 17.249H18.8749C19.5709 17.2482 20.2381 16.9714 20.7302 16.4793C21.2224 15.9872 21.4992 15.3199 21.4999 14.624V3.37396C21.4992 2.678 21.2224 2.01075 20.7302 1.51863C20.2381 1.02651 19.5709 0.749707 18.8749 0.748962ZM18.2102 5.09099L11.4602 10.341C11.3286 10.4433 11.1666 10.4989 10.9999 10.4989C10.8332 10.4989 10.6712 10.4433 10.5396 10.341L3.7896 5.09099C3.7103 5.0311 3.64368 4.95605 3.59363 4.87019C3.54359 4.78433 3.5111 4.68939 3.49806 4.59087C3.48503 4.49234 3.4917 4.39222 3.5177 4.2963C3.54369 4.20038 3.58849 4.11058 3.64949 4.03212C3.71049 3.95367 3.78648 3.88812 3.87303 3.83928C3.95958 3.79045 4.05498 3.7593 4.15367 3.74765C4.25237 3.736 4.35239 3.74409 4.44794 3.77143C4.54348 3.79877 4.63264 3.84483 4.71023 3.90693L10.9999 8.7988L17.2896 3.90693C17.4469 3.78816 17.6446 3.73607 17.84 3.76192C18.0353 3.78777 18.2127 3.88949 18.3337 4.04508C18.4546 4.20067 18.5095 4.39762 18.4864 4.59335C18.4633 4.78907 18.3641 4.96784 18.2102 5.09099Z" fill="#A0AEC0"/>
</svg>
